<svg width="41" height="57" viewBox="0 0 41 57" fill="none" xmlns="http://www.w3.org/2000/svg">
<path fill-rule="evenodd" clip-rule="evenodd" d="M20.6185 4.14766L20.6185 48.7047C20.6185 53.2671 16.9925 57 12.5607 57C8.12894 57 4.50292 53.2671 4.50292 48.7047L4.50292 4.14766C4.50292 1.86645 6.31593 4.63336e-06 8.53182 4.53423e-06L16.5896 4.17375e-06L20.6185 3.99351e-06L20.6185 4.14766ZM12.5607 52.8523C10.3448 52.8523 8.53183 50.9859 8.53183 48.7047C8.53183 46.4235 10.3448 44.557 12.5607 44.557C14.7766 44.557 16.5896 46.4235 16.5896 48.7047C16.5896 50.9859 14.7766 52.8523 12.5607 52.8523Z" fill="#6271FF"/>
<mask id="mask0_57_54" style="mask-type:alpha" maskUnits="userSpaceOnUse" x="0" y="0" width="41" height="41">
<path d="M41 20.3745C41 31.627 31.9403 40.7489 20.6185 40.7489V29.3822C25.6239 29.3822 29.5632 25.3493 29.5632 20.3745C29.5632 15.3997 25.5054 11.3668 20.5 11.3668C15.4946 11.3668 11.4368 15.3997 11.4368 20.3745C11.4368 28.8638 0 28.8638 0 20.3745C0 9.12196 9.17816 0 20.5 0C31.8218 0 41 9.12196 41 20.3745Z" fill="#8B62FF"/>
</mask>
<g mask="url(#mask0_57_54)">
<g>
<path d="M41 20.3745C41 31.627 31.9403 40.7489 20.6185 40.7489V29.3822C25.6239 29.3822 29.5632 25.3493 29.5632 20.3745C29.5632 15.3997 25.5054 11.3668 20.5 11.3668C15.4946 11.3668 11.4368 15.3997 11.4368 20.3745C11.4368 28.8638 0 28.8638 0 20.3745C0 9.12196 9.17816 0 20.5 0C31.8218 0 41 9.12196 41 20.3745Z" fill="#8B62FF"/>
</g>
<path d="M20.3816 -0.727661C14.6879 -0.727661 9.53321 1.63431 5.80199 5.4531L20.3816 20.3746V-0.727661Z" fill="#B1B8FF"/>
<path d="M34.9655 5.45762C31.234 1.63618 26.0775 -0.727661 20.3816 -0.727661V20.3746L34.9655 5.45762Z" fill="#A1AAFF"/>
<path d="M41.0001 20.3745C41.0001 14.5496 38.6941 9.27599 34.9655 5.45762L20.3816 20.3746L41.0001 20.3745Z" fill="#919BFF"/>
<path d="M34.9567 35.3004C38.6905 31.4813 41.0001 26.2039 41.0001 20.3745L20.3816 20.3746L34.9567 35.3004Z" fill="#818DFF"/>
<path d="M20.3816 41.4766C26.073 41.4766 31.2258 39.1165 34.9567 35.3004L20.3816 20.3746V41.4766Z" fill="#727FFF"/>
<path d="M5.80199 5.4531C2.07083 9.27183 -0.236938 14.5473 -0.236938 20.3745L20.3816 20.3746L5.80199 5.4531Z" fill="#C0C6FF"/>
<path d="M-0.236938 20.3745C-0.236938 26.1994 2.06908 31.4731 5.79775 35.2915L20.3816 20.3746L-0.236938 20.3745Z" fill="#D0D4FF"/>
</g>
</svg>
